<svg width="30" height="30" viewBox="0 0 30 30" fill="none" xmlns="http://www.w3.org/2000/svg">
<circle cx="15" cy="15" r="15" fill="#DFDFD2"/>
<g clip-path="url(#clip0)">
<path d="M9.16667 7.58301V21.833H8.375V23.4163H11.5417V21.833H10.75V17.8747H21.0417C21.2516 17.8747 21.453 17.7913 21.6015 17.6428C21.7499 17.4943 21.8333 17.293 21.8333 17.083V9.16634C21.8333 8.95638 21.7499 8.75501 21.6015 8.60655C21.453 8.45808 21.2516 8.37467 21.0417 8.37467H10.75V7.58301H9.16667ZM12.3333 9.95801V11.5413H13.9167V9.95801H15.5V11.5413H17.0833V9.95801H18.6667V11.5413H20.25V13.1247H18.6667V14.708H20.25V16.2913H18.6667V14.708H17.0833V16.2913H15.5V14.708H13.9167V16.2913H12.3333V14.708H10.75V13.1247H12.3333V11.5413H10.75V9.95801H12.3333Z" fill="black"/>
<path d="M12.3335 13.1253H13.9168V14.7087H12.3335V13.1253ZM15.5002 13.1253H17.0835V14.7087H15.5002V13.1253ZM13.9168 11.542H15.5002V13.1253H13.9168V11.542ZM17.0835 11.542H18.6668V13.1253H17.0835V11.542Z" fill="black"/>
</g>
<defs>
<clipPath id="clip0">
<rect width="19" height="19" fill="white" transform="translate(6 3)"/>
</clipPath>
</defs>
</svg>
