<svg width="37" height="37" viewBox="0 0 37 37" fill="none" xmlns="http://www.w3.org/2000/svg">
<circle cx="18.5" cy="18.5" r="18.5" fill="white"/>
<path fill-rule="evenodd" clip-rule="evenodd" d="M23.3909 13.8909C23.3909 16.4802 21.4345 18.5516 18.9315 18.7817C20.8672 18.9027 22.5956 19.7146 23.8879 20.9913C24.7737 19.9272 26.0641 19.238 27.5337 19.1462C25.8651 18.9927 24.5608 17.6118 24.5608 15.8856C24.5608 14.0827 26.0185 12.625 27.8214 12.625C29.6243 12.625 31.082 14.0827 31.082 15.8856C31.082 17.6118 29.7778 18.9927 28.1091 19.1462C30.871 19.3188 33 21.6012 33 24.5165V24.9001H26.0506C26.1927 25.5182 26.2679 26.1666 26.2679 26.8373V27.4127H10.7321V26.8373C10.7321 22.4643 13.9256 19.0407 18.0685 18.7817C15.5655 18.5516 13.6091 16.4802 13.6091 13.8909C13.6091 11.1865 15.7956 9 18.5 9C21.2044 9 23.3909 11.1865 23.3909 13.8909ZM25.8349 24.1329H32.2136C32.041 21.6971 30.2189 19.9134 27.8214 19.9134C26.4058 19.9134 25.1908 20.5352 24.3975 21.546C25.0223 22.2957 25.5131 23.1695 25.8349 24.1329ZM23.79 22.5862C23.323 21.546 24.1073 22.1273 24.1073 23.068L24.3975 23.608L24.6234 24.1329C24.7358 24.5681 25.0549 25.7905 25.0883 26.2619H11.9117C12.1706 22.6081 14.9038 19.9325 18.5 19.9325C20.4096 19.9325 22.6084 21.3314 23.79 22.5862ZM18.5 10.1508C16.4286 10.1508 14.7599 11.8194 14.7599 13.8909C14.7599 15.9623 16.4286 17.631 18.5 17.631C20.5714 17.631 22.2401 15.9623 22.2401 13.8909C22.2401 11.8194 20.5714 10.1508 18.5 10.1508ZM27.8214 13.3922C26.4405 13.3922 25.328 14.5046 25.328 15.8856C25.328 17.2665 26.4405 18.379 27.8214 18.379C29.2024 18.379 30.3148 17.2665 30.3148 15.8856C30.3148 14.5046 29.2024 13.3922 27.8214 13.3922Z" fill="#363636"/>
<path fill-rule="evenodd" clip-rule="evenodd" d="M13.6091 13.8909C13.6091 16.4802 15.5655 18.5516 18.0685 18.7817C16.1328 18.9027 14.4044 19.7146 13.1121 20.9913C12.2263 19.9272 10.9359 19.238 9.46627 19.1462C11.1349 18.9927 12.4392 17.6118 12.4392 15.8856C12.4392 14.0827 10.9815 12.625 9.17857 12.625C7.37566 12.625 5.91799 14.0827 5.91799 15.8856C5.91799 17.6118 7.22222 18.9927 8.89087 19.1462C6.12897 19.3188 4 21.6012 4 24.5165V24.9001H10.9494C10.8073 25.5182 10.7321 26.1666 10.7321 26.8373V27.4127H26.2679V26.8373C26.2679 22.4643 23.0744 19.0407 18.9315 18.7817C21.4345 18.5516 23.3909 16.4802 23.3909 13.8909C23.3909 11.1865 21.2044 9 18.5 9C15.7956 9 13.6091 11.1865 13.6091 13.8909ZM11.1651 24.1329H4.78638C4.95899 21.6971 6.78108 19.9134 9.17857 19.9134C10.5942 19.9134 11.8092 20.5352 12.6025 21.546C11.9777 22.2957 11.4869 23.1695 11.1651 24.1329ZM13.21 22.5862C13.677 21.546 12.8927 22.1273 12.8927 23.068L12.6025 23.608L12.3766 24.1329C12.2642 24.5681 11.9451 25.7905 11.9117 26.2619H25.0883C24.8294 22.6081 22.0962 19.9325 18.5 19.9325C16.5904 19.9325 14.3916 21.3314 13.21 22.5862ZM18.5 10.1508C20.5714 10.1508 22.2401 11.8194 22.2401 13.8909C22.2401 15.9623 20.5714 17.631 18.5 17.631C16.4286 17.631 14.7599 15.9623 14.7599 13.8909C14.7599 11.8194 16.4286 10.1508 18.5 10.1508ZM9.17857 13.3922C10.5595 13.3922 11.672 14.5046 11.672 15.8856C11.672 17.2665 10.5595 18.379 9.17857 18.379C7.79762 18.379 6.68518 17.2665 6.68518 15.8856C6.68518 14.5046 7.79762 13.3922 9.17857 13.3922Z" fill="#363636"/>
<path d="M18.9315 18.7817C21.4345 18.5516 23.3909 16.4802 23.3909 13.8909C23.3909 11.1865 21.2044 9 18.5 9C15.7956 9 13.6091 11.1865 13.6091 13.8909C13.6091 16.4802 15.5655 18.5516 18.0685 18.7817M18.9315 18.7817C20.8672 18.9027 22.5956 19.7146 23.8879 20.9913C24.7737 19.9272 26.0641 19.238 27.5337 19.1462C25.8651 18.9927 24.5608 17.6118 24.5608 15.8856C24.5608 14.0827 26.0185 12.625 27.8214 12.625C29.6243 12.625 31.082 14.0827 31.082 15.8856C31.082 17.6118 29.7778 18.9927 28.1091 19.1462C30.871 19.3188 33 21.6012 33 24.5165V24.9001H26.0506C26.1927 25.5182 26.2679 26.1666 26.2679 26.8373M18.9315 18.7817C23.0744 19.0407 26.2679 22.4643 26.2679 26.8373M26.2679 26.8373V27.4127H10.7321V26.8373M10.7321 26.8373C10.7321 22.4643 13.9256 19.0407 18.0685 18.7817M10.7321 26.8373C10.7321 26.1666 10.8073 25.5182 10.9494 24.9001H4V24.5165C4 21.6012 6.12897 19.3188 8.89087 19.1462C7.22222 18.9927 5.91799 17.6118 5.91799 15.8856C5.91799 14.0827 7.37566 12.625 9.17857 12.625C10.9815 12.625 12.4392 14.0827 12.4392 15.8856C12.4392 17.6118 11.1349 18.9927 9.46627 19.1462C10.9359 19.238 12.2263 19.9272 13.1121 20.9913C14.4044 19.7146 16.1328 18.9027 18.0685 18.7817M23.79 22.5862C24.1285 23.0542 24.4093 23.5729 24.6234 24.1329M23.79 22.5862C23.323 21.546 24.1073 22.1273 24.1073 23.068L24.3975 23.608L24.6234 24.1329M23.79 22.5862C22.6084 21.3314 20.4096 19.9325 18.5 19.9325M24.6234 24.1329C24.7358 24.5681 25.0549 25.7905 25.0883 26.2619M25.0883 26.2619H11.9117M25.0883 26.2619C24.8294 22.6081 22.0962 19.9325 18.5 19.9325M11.9117 26.2619C12.1706 22.6081 14.9038 19.9325 18.5 19.9325M11.9117 26.2619C11.9451 25.7905 12.2642 24.5681 12.3766 24.1329M18.5 19.9325C16.5904 19.9325 14.3916 21.3314 13.21 22.5862M13.21 22.5862C12.8715 23.0542 12.5907 23.5729 12.3766 24.1329M13.21 22.5862C13.677 21.546 12.8927 22.1273 12.8927 23.068L12.6025 23.608L12.3766 24.1329M32.2136 24.1329H25.8349C25.5131 23.1695 25.0223 22.2957 24.3975 21.546C25.1908 20.5352 26.4058 19.9134 27.8214 19.9134C30.2189 19.9134 32.041 21.6971 32.2136 24.1329ZM14.7599 13.8909C14.7599 11.8194 16.4286 10.1508 18.5 10.1508C20.5714 10.1508 22.2401 11.8194 22.2401 13.8909C22.2401 15.9623 20.5714 17.631 18.5 17.631C16.4286 17.631 14.7599 15.9623 14.7599 13.8909ZM25.328 15.8856C25.328 14.5046 26.4405 13.3922 27.8214 13.3922C29.2024 13.3922 30.3148 14.5046 30.3148 15.8856C30.3148 17.2665 29.2024 18.379 27.8214 18.379C26.4405 18.379 25.328 17.2665 25.328 15.8856ZM4.78638 24.1329H11.1651C11.4869 23.1695 11.9777 22.2957 12.6025 21.546C11.8092 20.5352 10.5942 19.9134 9.17857 19.9134C6.78108 19.9134 4.95899 21.6971 4.78638 24.1329ZM11.672 15.8856C11.672 14.5046 10.5595 13.3922 9.17857 13.3922C7.79762 13.3922 6.68518 14.5046 6.68518 15.8856C6.68518 17.2665 7.79762 18.379 9.17857 18.379C10.5595 18.379 11.672 17.2665 11.672 15.8856Z" stroke="#363636" stroke-miterlimit="10"/>
</svg>
