<svg width="36" height="36" viewBox="0 0 36 36" fill="none" xmlns="http://www.w3.org/2000/svg">
<path d="M4 6L32 6C32.2652 6 32.5196 6.15804 32.7071 6.43934C32.8946 6.72065 33 7.10218 33 7.5C33 7.89783 32.8946 8.27936 32.7071 8.56066C32.5196 8.84197 32.2652 9 32 9L4 9C3.73478 9 3.48043 8.84196 3.29289 8.56066C3.10536 8.27935 3 7.89782 3 7.5C3 7.10217 3.10536 6.72064 3.29289 6.43934C3.48043 6.15803 3.73478 6 4 6Z" fill="#882E76"/>
<path d="M4 16L32 16C32.2652 16 32.5196 16.158 32.7071 16.4393C32.8946 16.7206 33 17.1022 33 17.5C33 17.8978 32.8946 18.2794 32.7071 18.5607C32.5196 18.842 32.2652 19 32 19L4 19C3.73478 19 3.48043 18.842 3.29289 18.5607C3.10536 18.2794 3 17.8978 3 17.5C3 17.1022 3.10536 16.7206 3.29289 16.4393C3.48043 16.158 3.73478 16 4 16Z" fill="#882E76"/>
<path d="M4 26L32 26C32.2652 26 32.5196 26.158 32.7071 26.4393C32.8946 26.7206 33 27.1022 33 27.5C33 27.8978 32.8946 28.2794 32.7071 28.5607C32.5196 28.842 32.2652 29 32 29L4 29C3.73478 29 3.48043 28.842 3.29289 28.5607C3.10536 28.2794 3 27.8978 3 27.5C3 27.1022 3.10536 26.7206 3.29289 26.4393C3.48043 26.158 3.73478 26 4 26Z" fill="#882E76"/>
</svg>
