<svg width="40" height="50" viewBox="0 0 40 50" fill="none" xmlns="http://www.w3.org/2000/svg">
<path d="M22.7853 14.3122C22.7853 14.402 22.7813 14.4958 22.7735 14.5856C22.7696 14.6247 22.7423 14.8122 22.7618 14.695C22.7306 14.8669 22.6954 15.0388 22.6407 15.2067C22.6134 15.2888 22.586 15.3708 22.5509 15.4528C22.5938 15.3473 22.5196 15.5153 22.504 15.5466C22.4259 15.6989 22.3399 15.8473 22.2423 15.988C22.2228 16.0153 22.2032 16.0427 22.1837 16.07C22.2501 15.9802 22.1837 16.07 22.1642 16.0895C22.1134 16.1481 22.0626 16.2067 22.0118 16.2614C21.9532 16.3239 21.8907 16.3825 21.8282 16.4372C21.8048 16.4606 21.7774 16.4841 21.7501 16.5036C21.7423 16.5114 21.6095 16.613 21.711 16.5388C21.5899 16.6325 21.461 16.7145 21.3243 16.7888C21.2579 16.8278 21.1876 16.8591 21.1173 16.8942C21.0899 16.9059 20.9845 16.9528 21.0899 16.9098C21.0431 16.9294 20.9923 16.9489 20.9454 16.9645C20.797 17.0192 20.6446 17.0583 20.4923 17.0934C20.4571 17.1013 20.422 17.1052 20.3868 17.113C20.2228 17.1481 20.461 17.1052 20.3556 17.1208C20.2579 17.1325 20.1563 17.1403 20.0587 17.1442C19.8946 17.1481 19.7306 17.1403 19.5704 17.1247C19.4532 17.113 19.5431 17.1208 19.5665 17.1247C19.5235 17.1169 19.4806 17.1091 19.4376 17.1013C19.3438 17.0817 19.2501 17.0583 19.1563 17.0309C19.0899 17.0114 19.0235 16.9919 18.9571 16.9684C18.9181 16.9528 18.8751 16.9372 18.836 16.9216C18.7423 16.8864 18.9571 16.9841 18.8087 16.9098C18.6642 16.8356 18.5196 16.7614 18.3829 16.6716C18.3204 16.6286 18.254 16.5856 18.1954 16.5388C18.2853 16.6052 18.1954 16.5388 18.1759 16.5192C18.1446 16.4919 18.1095 16.4645 18.0782 16.4372C17.9571 16.3278 17.8478 16.2106 17.7423 16.0895C17.7228 16.07 17.6563 15.9763 17.7228 16.07C17.7032 16.0427 17.6837 16.0153 17.6642 15.988C17.6212 15.9255 17.5782 15.8591 17.5392 15.7966C17.5001 15.7302 17.461 15.6638 17.4259 15.5934C17.4063 15.5544 17.3868 15.5153 17.3673 15.4763C17.3556 15.4528 17.3438 15.4294 17.336 15.4059C17.3595 15.4606 17.3595 15.4645 17.3438 15.4255C17.2853 15.2809 17.2384 15.1325 17.1993 14.9802C17.1798 14.902 17.1642 14.8239 17.1485 14.7458C17.1251 14.6325 17.1407 14.7184 17.1446 14.7419C17.1368 14.6872 17.1329 14.6364 17.129 14.5817C17.1173 14.4098 17.1134 14.238 17.129 14.0622C17.1329 14.027 17.1642 13.8044 17.1407 13.9255C17.1563 13.8395 17.172 13.7536 17.1915 13.6638C17.2267 13.5114 17.2774 13.363 17.3321 13.2145C17.3907 13.0583 17.3009 13.277 17.3438 13.1872C17.3634 13.1481 17.379 13.1091 17.3985 13.07C17.4376 12.9919 17.4767 12.9177 17.5235 12.8434C17.5665 12.7692 17.6134 12.6989 17.6642 12.6286C17.6837 12.6013 17.7032 12.5739 17.7228 12.5466C17.6563 12.6325 17.711 12.5622 17.7267 12.5466C17.8399 12.4177 17.9532 12.2927 18.0782 12.1794C18.1017 12.1559 18.129 12.1325 18.1563 12.113C18.1524 12.1169 18.2813 12.0114 18.2149 12.0622C18.1485 12.113 18.2813 12.0153 18.2774 12.0153C18.3048 11.9958 18.3321 11.9763 18.3634 11.9567C18.5079 11.863 18.6563 11.7848 18.8126 11.7067C18.9103 11.6559 18.836 11.695 18.8165 11.7028C18.8556 11.6872 18.8985 11.6716 18.9376 11.6559C19.0118 11.6286 19.086 11.6052 19.1603 11.5817C19.2345 11.5583 19.3126 11.5387 19.3907 11.5231C19.4337 11.5153 19.4767 11.5075 19.5196 11.4958C19.6446 11.4684 19.4337 11.4997 19.5743 11.488C19.7384 11.4723 19.8985 11.4645 20.0626 11.4684C20.1446 11.4723 20.2267 11.4762 20.3048 11.4841C20.336 11.488 20.4532 11.5075 20.336 11.488C20.3868 11.4958 20.4415 11.5075 20.4923 11.5153C20.672 11.5544 20.8478 11.6052 21.0196 11.6716C21.047 11.6833 21.1524 11.7302 21.047 11.6833C21.0938 11.7028 21.1407 11.7262 21.1876 11.7497C21.2657 11.7887 21.3399 11.8278 21.4142 11.8747C21.4884 11.9177 21.5587 11.9645 21.629 12.0153C21.6251 12.0114 21.7579 12.113 21.6915 12.0622C21.6407 12.0231 21.7579 12.1169 21.7696 12.1286C21.9063 12.2458 22.0313 12.3708 22.1446 12.5075C22.1407 12.5036 22.2462 12.6325 22.1954 12.5661C22.1563 12.5153 22.2462 12.6364 22.254 12.652C22.3087 12.7302 22.3595 12.8083 22.4063 12.8903C22.4493 12.9645 22.4884 13.0388 22.5274 13.1169C22.5431 13.1481 22.5548 13.1794 22.5704 13.2106C22.5196 13.0973 22.5821 13.238 22.5899 13.2614C22.6563 13.4411 22.711 13.6286 22.7462 13.8161C22.754 13.8513 22.7579 13.8864 22.7657 13.9216C22.7423 13.7966 22.7696 13.9489 22.7735 13.9802C22.7813 14.0934 22.7853 14.2028 22.7853 14.3122C22.7892 14.6169 23.0548 14.9138 23.3712 14.8981C23.6876 14.8825 23.961 14.6403 23.9571 14.3122C23.9454 12.6208 22.8829 11.1325 21.3048 10.5427C19.7735 9.96844 17.9337 10.4645 16.8946 11.7263C15.8204 13.0309 15.629 14.8981 16.5079 16.3669C17.3829 17.8239 19.0899 18.5544 20.7501 18.2419C22.6056 17.8903 23.9415 16.1794 23.9571 14.3161C23.961 14.0114 23.6876 13.7145 23.3712 13.7302C23.0509 13.738 22.7892 13.9841 22.7853 14.3122Z" fill="black"/>
<path d="M20.2187 18.2651C20.039 18.2651 19.8633 18.2651 19.6836 18.2651C19.3789 18.2651 19.082 18.5346 19.0976 18.851C19.1133 19.1674 19.3554 19.437 19.6836 19.437C19.8633 19.437 20.039 19.437 20.2187 19.437C20.5234 19.437 20.8203 19.1674 20.8047 18.851C20.789 18.5307 20.5468 18.2651 20.2187 18.2651Z" fill="black"/>
<path d="M13.3555 25.1951C13.3594 25.113 13.3398 25.0388 13.3047 24.9685C13.2813 24.8943 13.2422 24.8318 13.1836 24.781C13.1289 24.7224 13.0664 24.6834 12.9961 24.6599C12.9258 24.6248 12.8516 24.6052 12.7695 24.6091C12.7188 24.6169 12.6641 24.6248 12.6133 24.6287C12.5156 24.656 12.4297 24.7068 12.3555 24.781C12.3242 24.8201 12.293 24.8591 12.2656 24.8982C12.2109 24.988 12.1875 25.0896 12.1875 25.1951C12.1836 25.2771 12.2031 25.3513 12.2383 25.4216C12.2617 25.4959 12.3008 25.5584 12.3594 25.6091C12.4141 25.6677 12.4766 25.7068 12.5469 25.7302C12.6172 25.7654 12.6914 25.7849 12.7734 25.781C12.8242 25.7732 12.8789 25.7654 12.9297 25.7615C13.0273 25.7341 13.1133 25.6834 13.1875 25.6091C13.2188 25.5701 13.25 25.531 13.2773 25.4919C13.3281 25.3982 13.3555 25.3005 13.3555 25.1951Z" fill="black"/>
<path d="M27.7384 25.3588C27.7423 25.2767 27.7228 25.2025 27.6876 25.1322C27.6642 25.058 27.6251 24.9955 27.5665 24.9447C27.5118 24.8861 27.4493 24.8471 27.379 24.8236C27.3087 24.7885 27.2345 24.7689 27.1525 24.7728C27.1017 24.7806 27.047 24.7885 26.9962 24.7924C26.8986 24.8197 26.8126 24.8705 26.7384 24.9447C26.7072 24.9838 26.6759 25.0228 26.6486 25.0619C26.5939 25.1517 26.5704 25.2533 26.5704 25.3588C26.5665 25.4408 26.5861 25.515 26.6212 25.5853C26.6447 25.6596 26.6837 25.7221 26.7423 25.7728C26.797 25.8314 26.8595 25.8705 26.9298 25.8939C27.0001 25.9291 27.0743 25.9486 27.1564 25.9447C27.2072 25.9369 27.2618 25.9291 27.3126 25.9252C27.4103 25.8978 27.4962 25.8471 27.5704 25.7728C27.6017 25.7338 27.6329 25.6947 27.6603 25.6557C27.7111 25.5658 27.7384 25.4642 27.7384 25.3588Z" fill="black"/>
<path d="M34.4613 17.3356C34.4613 17.4255 34.4574 17.5192 34.4496 17.6091C34.4457 17.6481 34.4183 17.8356 34.4378 17.7184C34.4066 17.8903 34.3714 18.0622 34.3167 18.2302C34.2894 18.3122 34.2621 18.3942 34.2269 18.4762C34.2699 18.3708 34.1957 18.5387 34.18 18.57C34.1019 18.7223 34.016 18.8708 33.9183 19.0114C33.8988 19.0387 33.8792 19.0661 33.8597 19.0934C33.9261 19.0036 33.8597 19.0934 33.8402 19.113C33.7894 19.1716 33.7386 19.2302 33.6878 19.2848C33.6292 19.3473 33.5667 19.4059 33.5042 19.4606C33.4808 19.4841 33.4535 19.5075 33.4261 19.527C33.4183 19.5348 33.2855 19.6364 33.3871 19.5622C33.266 19.6559 33.1371 19.738 33.0003 19.8122C32.9339 19.8512 32.8636 19.8825 32.7933 19.9177C32.766 19.9294 32.6605 19.9762 32.766 19.9333C32.7191 19.9528 32.6683 19.9723 32.6214 19.988C32.473 20.0427 32.3207 20.0817 32.1683 20.1169C32.1332 20.1247 32.098 20.1286 32.0628 20.1364C31.8988 20.1716 32.1371 20.1286 32.0316 20.1442C31.9339 20.1559 31.8324 20.1637 31.7347 20.1677C31.5707 20.1716 31.4066 20.1637 31.2464 20.1481C31.1292 20.1364 31.2191 20.1442 31.2425 20.1481C31.1996 20.1403 31.1566 20.1325 31.1136 20.1247C31.0199 20.1052 30.9261 20.0817 30.8324 20.0544C30.766 20.0348 30.6996 20.0153 30.6332 19.9919C30.5941 19.9762 30.5511 19.9606 30.5121 19.945C30.4183 19.9098 30.6332 20.0075 30.4847 19.9333C30.3402 19.8591 30.1957 19.7848 30.0589 19.695C29.9964 19.652 29.93 19.6091 29.8714 19.5622C29.9613 19.6286 29.8714 19.5622 29.8519 19.5427C29.8207 19.5153 29.7855 19.488 29.7542 19.4606C29.6332 19.3512 29.5238 19.2341 29.4183 19.113C29.3988 19.0934 29.3324 18.9997 29.3988 19.0934C29.3792 19.0661 29.3597 19.0387 29.3402 19.0114C29.2972 18.9489 29.2542 18.8825 29.2152 18.82C29.1761 18.7536 29.1371 18.6872 29.1019 18.6169C29.0824 18.5778 29.0628 18.5387 29.0433 18.4997C29.0316 18.4762 29.0199 18.4528 29.0121 18.4294C29.0355 18.4841 29.0355 18.488 29.0199 18.4489C28.9613 18.3044 28.9144 18.1559 28.8753 18.0036C28.8558 17.9255 28.8402 17.8473 28.8246 17.7692C28.8011 17.6559 28.8167 17.7419 28.8207 17.7653C28.8128 17.7106 28.8089 17.6598 28.805 17.6052C28.7933 17.4333 28.7894 17.2614 28.805 17.0856C28.8089 17.0505 28.8402 16.8278 28.8167 16.9489C28.8324 16.863 28.848 16.777 28.8675 16.6872C28.9027 16.5348 28.9535 16.3864 29.0082 16.238C29.0667 16.0817 28.9769 16.3005 29.0199 16.2106C29.0394 16.1716 29.055 16.1325 29.0746 16.0934C29.1136 16.0153 29.1527 15.9411 29.1996 15.8669C29.2425 15.7927 29.2894 15.7223 29.3402 15.652C29.3597 15.6247 29.3792 15.5973 29.3988 15.57C29.3324 15.6559 29.3871 15.5856 29.4027 15.57C29.516 15.4411 29.6292 15.3161 29.7542 15.2028C29.7777 15.1794 29.805 15.1559 29.8324 15.1364C29.8285 15.1403 29.9574 15.0348 29.891 15.0856C29.8246 15.1364 29.9574 15.0387 29.9535 15.0387C29.9808 15.0192 30.0082 14.9997 30.0394 14.9802C30.1839 14.8864 30.3324 14.8083 30.4886 14.7302C30.5863 14.6794 30.5121 14.7184 30.4925 14.7262C30.5316 14.7106 30.5746 14.695 30.6136 14.6794C30.6878 14.652 30.7621 14.6286 30.8363 14.6052C30.9105 14.5817 30.9886 14.5622 31.0667 14.5466C31.1097 14.5387 31.1527 14.5309 31.1957 14.5192C31.3207 14.4919 31.1097 14.5231 31.2503 14.5114C31.4144 14.4958 31.5746 14.488 31.7386 14.4919C31.8207 14.4958 31.9027 14.4997 31.9808 14.5075C32.0121 14.5114 32.1292 14.5309 32.0121 14.5114C32.0628 14.5192 32.1175 14.5309 32.1683 14.5387C32.348 14.5778 32.5238 14.6286 32.6957 14.695C32.723 14.7067 32.8285 14.7536 32.723 14.7067C32.7699 14.7262 32.8167 14.7497 32.8636 14.7731C32.9417 14.8122 33.016 14.8512 33.0902 14.8981C33.1644 14.9411 33.2347 14.988 33.305 15.0387C33.3011 15.0348 33.4339 15.1364 33.3675 15.0856C33.3167 15.0466 33.4339 15.1403 33.4457 15.152C33.5824 15.2692 33.7074 15.3942 33.8207 15.5309C33.8167 15.527 33.9222 15.6559 33.8714 15.5895C33.8324 15.5387 33.9222 15.6598 33.93 15.6755C33.9847 15.7536 34.0355 15.8317 34.0824 15.9137C34.1253 15.988 34.1644 16.0622 34.2035 16.1403C34.2191 16.1716 34.2308 16.2028 34.2464 16.2341C34.1957 16.1208 34.2582 16.2614 34.266 16.2848C34.3324 16.4645 34.3871 16.652 34.4222 16.8395C34.43 16.8747 34.4339 16.9098 34.4417 16.945C34.4183 16.82 34.4457 16.9723 34.4496 17.0036C34.4535 17.1169 34.4574 17.2262 34.4613 17.3356C34.4652 17.6403 34.7308 17.9372 35.0472 17.9216C35.3636 17.9059 35.6371 17.6637 35.6332 17.3356C35.6214 15.6442 34.5589 14.1559 32.9808 13.5661C31.4496 12.9919 29.6097 13.488 28.5707 14.7497C27.4964 16.0544 27.305 17.9216 28.1839 19.3903C29.0589 20.8473 30.766 21.5778 32.4261 21.2653C34.2816 20.9137 35.6175 19.2028 35.6332 17.3395C35.6371 17.0348 35.3636 16.738 35.0472 16.7536C34.7269 16.7653 34.4613 17.0075 34.4613 17.3356Z" fill="black"/>
<path d="M27.2229 23.3632C27.3987 23.246 27.5823 23.1327 27.7698 23.035C27.9573 22.9374 28.1291 22.8593 28.2737 22.8046C28.4768 22.7265 28.6838 22.664 28.8948 22.6093C28.9885 22.5858 29.0862 22.5624 29.1838 22.5468C29.2385 22.535 29.2932 22.5272 29.3479 22.5155C29.344 22.5155 29.5276 22.4921 29.4533 22.4999C29.8401 22.453 30.2307 22.4608 30.6174 22.4608C31.4573 22.4608 32.2971 22.4608 33.1369 22.4608C33.3674 22.4608 33.5979 22.4765 33.8283 22.496C33.8518 22.4999 33.9455 22.5116 33.8323 22.496C33.8752 22.5038 33.9221 22.5077 33.9651 22.5155C34.0432 22.5272 34.1213 22.5429 34.1994 22.5585C34.3791 22.5975 34.5588 22.6444 34.7346 22.6991C34.8908 22.7499 35.0471 22.8046 35.1994 22.8671C35.094 22.8241 35.1994 22.8671 35.2268 22.8788C35.2658 22.8983 35.3049 22.914 35.344 22.9335C35.4299 22.9725 35.5119 23.0155 35.5979 23.0624C35.7424 23.1405 35.8791 23.2225 36.0158 23.3124C36.0862 23.3593 36.1565 23.4061 36.2268 23.4569C36.2541 23.4765 36.2815 23.496 36.3088 23.5194C36.2073 23.4452 36.3518 23.5546 36.3713 23.5702C36.6291 23.7811 36.8674 24.0116 37.0823 24.2655C37.1369 24.3319 37.1916 24.3944 37.2424 24.4608C37.1721 24.371 37.2424 24.4608 37.258 24.4843C37.2815 24.5194 37.3088 24.5546 37.3323 24.5897C37.4299 24.7304 37.5237 24.8749 37.6057 25.0233C37.6916 25.1718 37.7698 25.3241 37.8401 25.4804C37.8557 25.5116 37.8674 25.5429 37.883 25.5741C37.8283 25.453 37.8987 25.6132 37.9026 25.6249C37.9338 25.7069 37.9651 25.785 37.9924 25.8671C38.1057 26.1991 38.1877 26.5429 38.2385 26.8905C38.2229 26.7733 38.2385 26.8905 38.2424 26.9218C38.2463 26.9647 38.2502 27.0116 38.2541 27.0546C38.2619 27.1444 38.2658 27.2343 38.2698 27.3241C38.2737 27.4296 38.2737 27.535 38.2737 27.6405C38.2737 27.7616 38.2737 27.8827 38.2737 28.0038C38.2737 28.0468 38.2737 28.0858 38.2737 28.1288C38.2737 28.16 38.2619 28.289 38.2815 28.1718C38.2737 28.2069 38.2658 28.2382 38.258 28.2733C38.2307 28.4022 38.3127 28.2147 38.2385 28.3241C38.219 28.3515 38.2033 28.3827 38.1838 28.41C38.2502 28.3202 38.1799 28.41 38.1565 28.4257C38.0783 28.4804 38.2776 28.3671 38.133 28.4452C38.1018 28.4608 38.0744 28.4804 38.0432 28.496C38.1565 28.4374 38.008 28.4999 37.9885 28.5077C37.8791 28.5429 38.0588 28.5194 37.9299 28.5116C37.9065 28.5116 37.883 28.5116 37.8596 28.5116C37.383 28.5116 36.9065 28.5116 36.4338 28.5116C34.5198 28.5116 32.6057 28.5116 30.6916 28.5116C29.3323 28.5116 27.969 28.4921 26.6096 28.5116C26.5862 28.5116 26.5627 28.5116 26.5393 28.5116C26.2346 28.5116 25.9377 28.7811 25.9533 29.0975C25.969 29.414 26.2112 29.6835 26.5393 29.6835C27.7502 29.6835 28.9612 29.6835 30.1721 29.6835C32.1799 29.6835 34.1877 29.6835 36.1955 29.6835C36.7385 29.6835 37.2776 29.6835 37.8205 29.6835C38.2463 29.6835 38.6487 29.5702 38.9651 29.2733C39.4729 28.8046 39.4494 28.1757 39.4455 27.5468C39.4377 26.0155 38.8791 24.5468 37.8713 23.3944C36.8518 22.2304 35.4143 21.5077 33.883 21.3241C33.0237 21.2186 32.133 21.2811 31.2698 21.2811C30.9026 21.2811 30.5315 21.2811 30.1643 21.2811C29.3752 21.2811 28.5783 21.4179 27.8479 21.7147C27.4221 21.8866 27.0198 22.0897 26.6408 22.3475C26.3791 22.5233 26.2619 22.8632 26.4299 23.1483C26.5705 23.414 26.9573 23.5429 27.2229 23.3632Z" fill="black"/>
<path d="M11.1681 17.3356C11.1681 17.4255 11.1642 17.5192 11.1564 17.6091C11.1524 17.6481 11.1251 17.8356 11.1446 17.7184C11.1134 17.8903 11.0782 18.0622 11.0235 18.2302C10.9962 18.3122 10.9688 18.3942 10.9337 18.4762C10.9767 18.3708 10.9024 18.5387 10.8868 18.57C10.8087 18.7223 10.7228 18.8708 10.6251 19.0114C10.6056 19.0387 10.586 19.0661 10.5665 19.0934C10.6329 19.0036 10.5665 19.0934 10.547 19.113C10.4962 19.1716 10.4454 19.2302 10.3946 19.2848C10.336 19.3473 10.2735 19.4059 10.211 19.4606C10.1876 19.4841 10.1603 19.5075 10.1329 19.527C10.1251 19.5348 9.99229 19.6364 10.0938 19.5622C9.97276 19.6559 9.84385 19.738 9.70713 19.8122C9.64072 19.8512 9.57041 19.8825 9.5001 19.9177C9.47276 19.9294 9.36729 19.9762 9.47276 19.9333C9.42588 19.9528 9.3751 19.9723 9.32822 19.988C9.17979 20.0427 9.02744 20.0817 8.8751 20.1169C8.83994 20.1247 8.80479 20.1286 8.76963 20.1364C8.60557 20.1716 8.84385 20.1286 8.73838 20.1442C8.64072 20.1559 8.53916 20.1637 8.44151 20.1677C8.27744 20.1716 8.11338 20.1637 7.95322 20.1481C7.83604 20.1364 7.92588 20.1442 7.94932 20.1481C7.90635 20.1403 7.86338 20.1325 7.82041 20.1247C7.72666 20.1052 7.63291 20.0817 7.53916 20.0544C7.47276 20.0348 7.40635 20.0153 7.33994 19.9919C7.30088 19.9762 7.25791 19.9606 7.21885 19.945C7.1251 19.9098 7.33994 20.0075 7.19151 19.9333C7.04697 19.8591 6.90244 19.7848 6.76572 19.695C6.70322 19.652 6.63682 19.6091 6.57822 19.5622C6.66807 19.6286 6.57822 19.5622 6.55869 19.5427C6.52744 19.5153 6.49229 19.488 6.46104 19.4606C6.33994 19.3512 6.23057 19.2341 6.1251 19.113C6.10557 19.0934 6.03916 18.9997 6.10557 19.0934C6.08604 19.0661 6.06651 19.0387 6.04697 19.0114C6.00401 18.9489 5.96104 18.8825 5.92197 18.82C5.88291 18.7536 5.84385 18.6872 5.80869 18.6169C5.78916 18.5778 5.76963 18.5387 5.7501 18.4997C5.73838 18.4762 5.72666 18.4528 5.71885 18.4294C5.74229 18.4841 5.74229 18.488 5.72666 18.4489C5.66807 18.3044 5.62119 18.1559 5.58213 18.0036C5.5626 17.9255 5.54697 17.8473 5.53135 17.7692C5.50791 17.6559 5.52354 17.7419 5.52744 17.7653C5.51963 17.7106 5.51572 17.6598 5.51182 17.6052C5.5001 17.4333 5.49619 17.2614 5.51182 17.0856C5.51572 17.0505 5.54697 16.8278 5.52354 16.9489C5.53916 16.863 5.55479 16.777 5.57432 16.6872C5.60947 16.5348 5.66026 16.3864 5.71494 16.238C5.77354 16.0817 5.68369 16.3005 5.72666 16.2106C5.74619 16.1716 5.76182 16.1325 5.78135 16.0934C5.82041 16.0153 5.85947 15.9411 5.90635 15.8669C5.94932 15.7927 5.99619 15.7223 6.04697 15.652C6.06651 15.6247 6.08604 15.5973 6.10557 15.57C6.03916 15.6559 6.09385 15.5856 6.10947 15.57C6.22275 15.4411 6.33604 15.3161 6.46104 15.2028C6.48447 15.1794 6.51182 15.1559 6.53916 15.1364C6.53525 15.1403 6.66416 15.0348 6.59775 15.0856C6.53135 15.1364 6.66416 15.0387 6.66026 15.0387C6.6876 15.0192 6.71494 14.9997 6.74619 14.9802C6.89072 14.8864 7.03916 14.8083 7.19541 14.7302C7.29307 14.6794 7.21885 14.7184 7.19932 14.7262C7.23838 14.7106 7.28135 14.695 7.32041 14.6794C7.39463 14.652 7.46885 14.6286 7.54307 14.6052C7.61729 14.5817 7.69541 14.5622 7.77354 14.5466C7.81651 14.5387 7.85947 14.5309 7.90244 14.5192C8.02744 14.4919 7.81651 14.5231 7.95713 14.5114C8.12119 14.4958 8.28135 14.488 8.44541 14.4919C8.52744 14.4958 8.60947 14.4997 8.6876 14.5075C8.71885 14.5114 8.83604 14.5309 8.71885 14.5114C8.76963 14.5192 8.82432 14.5309 8.8751 14.5387C9.05479 14.5778 9.23057 14.6286 9.40244 14.695C9.42979 14.7067 9.53526 14.7536 9.42979 14.7067C9.47666 14.7262 9.52354 14.7497 9.57041 14.7731C9.64854 14.8122 9.72276 14.8512 9.79697 14.8981C9.87119 14.9411 9.94151 14.988 10.0118 15.0387C10.0079 15.0348 10.1407 15.1364 10.0743 15.0856C10.0235 15.0466 10.1407 15.1403 10.1524 15.152C10.2892 15.2692 10.4142 15.3942 10.5274 15.5309C10.5235 15.527 10.629 15.6559 10.5782 15.5895C10.5392 15.5387 10.629 15.6598 10.6368 15.6755C10.6915 15.7536 10.7423 15.8317 10.7892 15.9137C10.8321 15.988 10.8712 16.0622 10.9103 16.1403C10.9259 16.1716 10.9376 16.2028 10.9532 16.2341C10.9024 16.1208 10.9649 16.2614 10.9728 16.2848C11.0392 16.4645 11.0938 16.652 11.129 16.8395C11.1368 16.8747 11.1407 16.9098 11.1485 16.945C11.1251 16.82 11.1524 16.9723 11.1564 17.0036C11.1642 17.1169 11.1681 17.2262 11.1681 17.3356C11.172 17.6403 11.4376 17.9372 11.754 17.9216C12.0704 17.9059 12.3439 17.6637 12.3399 17.3356C12.3282 15.6442 11.2657 14.1559 9.6876 13.5661C8.15635 12.9919 6.31651 13.488 5.27744 14.7497C4.20322 16.0544 4.01182 17.9216 4.89072 19.3903C5.76572 20.8473 7.47276 21.5778 9.13291 21.2653C10.9884 20.9137 12.3243 19.2028 12.3399 17.3395C12.3439 17.0348 12.0704 16.738 11.754 16.7536C11.4337 16.7653 11.172 17.0075 11.1681 17.3356Z" fill="black"/>
<path d="M13.3244 22.3198C12.5587 21.8159 11.6837 21.4839 10.7775 21.355C10.3244 21.2925 9.87514 21.2847 9.41811 21.2847C8.56654 21.2847 7.71498 21.2847 6.86342 21.2847C5.42201 21.2886 4.04701 21.7729 2.91811 22.6636C1.76576 23.5737 0.945449 24.9253 0.679824 26.3745C0.574355 26.9644 0.562637 27.5503 0.566543 28.1479C0.574355 28.9995 1.23451 29.6714 2.08607 29.6909C2.46889 29.6987 2.85561 29.6909 3.23842 29.6909C5.16029 29.6909 7.08607 29.6909 9.00795 29.6909C10.4415 29.6909 11.8751 29.7143 13.3087 29.6909C13.3322 29.6909 13.3556 29.6909 13.379 29.6909C13.6837 29.6909 13.9806 29.4214 13.965 29.105C13.9494 28.7886 13.7072 28.519 13.379 28.519C12.2345 28.519 11.0861 28.519 9.94154 28.519C7.99623 28.519 6.05092 28.519 4.1017 28.519C3.50795 28.519 2.91811 28.519 2.32436 28.519C2.26186 28.519 2.19936 28.519 2.13686 28.519C2.1017 28.519 1.97279 28.5073 2.07436 28.5269C2.0392 28.519 2.00795 28.5112 1.97279 28.5034C1.84389 28.4761 2.03139 28.5581 1.92201 28.4839C1.89467 28.4644 1.86342 28.4487 1.83607 28.4292C1.92592 28.4956 1.83607 28.4253 1.82045 28.4019C1.76576 28.3237 1.87904 28.5229 1.80092 28.3784C1.78529 28.3472 1.76576 28.3198 1.75014 28.2886C1.80873 28.4019 1.74623 28.2534 1.73842 28.2339C1.70326 28.1245 1.7267 28.3042 1.73451 28.1753C1.74623 27.9839 1.73451 27.7886 1.73451 27.5972C1.73451 27.4917 1.73451 27.3823 1.74232 27.2769C1.74623 27.187 1.75404 27.0972 1.76186 27.0073C1.76576 26.9722 1.76967 26.937 1.77357 26.9019C1.78139 26.8315 1.78139 26.8315 1.77357 26.8979C1.77748 26.8706 1.78139 26.8433 1.78529 26.8198C1.83998 26.48 1.92201 26.1479 2.03529 25.8276C2.06264 25.7456 2.09389 25.6636 2.12514 25.5854C2.16811 25.48 2.13686 25.562 2.12514 25.5815C2.14467 25.5347 2.16811 25.4878 2.18764 25.4409C2.26186 25.2847 2.33998 25.1323 2.42592 24.9839C2.50795 24.8433 2.59779 24.7065 2.68764 24.5737C2.70717 24.5464 2.83607 24.3745 2.76576 24.4683C2.82826 24.3862 2.89467 24.3081 2.96107 24.2339C3.18373 23.9761 3.43373 23.7456 3.69545 23.5308C3.71107 23.519 3.78529 23.4644 3.69935 23.5269C3.7267 23.5073 3.75404 23.4878 3.78139 23.4644C3.8517 23.4136 3.92201 23.3667 3.99232 23.3198C4.14076 23.2222 4.29701 23.1284 4.45326 23.0464C4.51967 23.0112 4.58998 22.9761 4.66029 22.9409C4.69936 22.9214 4.73842 22.9058 4.77748 22.8862C4.80482 22.8745 4.91029 22.8276 4.80482 22.8745C4.96498 22.8081 5.12904 22.7495 5.29311 22.6987C5.46107 22.6479 5.62904 22.6011 5.80092 22.5659C5.87904 22.5503 5.95717 22.5347 6.03529 22.5229C6.07826 22.5151 6.12123 22.5073 6.16811 22.5034C6.0392 22.5229 6.21107 22.4995 6.2267 22.4995C7.0392 22.4136 7.87904 22.4683 8.69545 22.4683C9.06654 22.4683 9.44154 22.4683 9.81264 22.4683C10.0587 22.4683 10.3048 22.4761 10.5509 22.5073C10.5236 22.5034 10.4689 22.4956 10.5939 22.5151C10.6486 22.5229 10.7033 22.5347 10.7579 22.5425C10.8556 22.562 10.9533 22.5815 11.047 22.605C11.2697 22.6597 11.4884 22.7261 11.6994 22.8042C11.7501 22.8237 11.8009 22.8433 11.8517 22.8628C11.7892 22.8354 11.8869 22.8784 11.8908 22.8784C11.9884 22.9214 12.0861 22.9683 12.1798 23.019C12.3712 23.1167 12.5509 23.2261 12.7306 23.3433C12.9962 23.519 13.379 23.394 13.5314 23.1323C13.7033 22.8354 13.59 22.4956 13.3244 22.3198Z" fill="black"/>
<path d="M26.6018 26.082C26.6018 26.2656 26.594 26.4453 26.5822 26.625C26.5744 26.7148 26.5666 26.8047 26.5588 26.8945C26.5588 26.9101 26.5354 27.0859 26.551 26.9531C26.5432 27.0078 26.5354 27.0586 26.5275 27.1093C26.469 27.4726 26.3791 27.832 26.2658 28.1836C26.2111 28.3476 26.1525 28.5117 26.0861 28.6718C26.133 28.5586 26.0471 28.7617 26.0315 28.7929C25.9924 28.8789 25.9494 28.9648 25.9104 29.0468C25.7502 29.3671 25.5627 29.6757 25.3557 29.9687C25.3049 30.039 25.2541 30.1054 25.2033 30.1757C25.2736 30.0859 25.2033 30.1757 25.1838 30.1992C25.1565 30.2304 25.1291 30.2656 25.1018 30.2968C24.9807 30.4414 24.8557 30.5781 24.7268 30.7148C24.6096 30.8359 24.4846 30.9531 24.3596 31.0664C24.2971 31.1211 24.2307 31.1796 24.1682 31.2343C24.1408 31.2578 24.1174 31.2773 24.09 31.3007C24.0627 31.3203 24.0354 31.3437 24.0119 31.3632C24.0549 31.3281 24.0627 31.3242 24.0275 31.3515C23.7502 31.5625 23.4533 31.7539 23.1486 31.9218C23.0002 32.0039 22.844 32.082 22.6877 32.1523C22.6486 32.1718 22.6096 32.1875 22.5705 32.207C22.5432 32.2187 22.4377 32.2617 22.5432 32.2187C22.4455 32.2578 22.3518 32.2968 22.2541 32.332C21.9182 32.4531 21.5705 32.5507 21.219 32.6211C21.133 32.6367 21.0432 32.6523 20.9572 32.6679C20.9143 32.6757 20.8713 32.6836 20.8244 32.6875C20.9377 32.6718 20.844 32.6836 20.8205 32.6875C20.6213 32.707 20.426 32.7265 20.2268 32.7343C19.844 32.75 19.465 32.7304 19.0861 32.6875C18.969 32.6757 19.0588 32.6836 19.0822 32.6875C19.0275 32.6796 18.9768 32.6718 18.926 32.664C18.84 32.6484 18.7502 32.6328 18.6643 32.6171C18.4846 32.582 18.3049 32.5351 18.1252 32.4882C17.9572 32.4414 17.7932 32.3867 17.6291 32.3281C17.5471 32.2968 17.469 32.2656 17.3869 32.2343C17.2932 32.1953 17.5119 32.289 17.3596 32.2226C17.3127 32.2031 17.2658 32.1796 17.219 32.1601C16.8908 32.0078 16.5783 31.8359 16.2775 31.6367C16.1369 31.5429 15.9963 31.4453 15.8596 31.3398C15.9455 31.4062 15.8752 31.3515 15.8557 31.3359C15.8166 31.3047 15.7775 31.2734 15.7385 31.2382C15.6682 31.1797 15.5979 31.1171 15.5275 31.0546C15.2697 30.8203 15.0275 30.5703 14.8049 30.3007C14.7736 30.2617 14.7424 30.2226 14.7072 30.1836C14.6955 30.1679 14.6408 30.0976 14.7033 30.1796C14.6525 30.1132 14.6018 30.0429 14.551 29.9726C14.4416 29.8203 14.34 29.664 14.2424 29.5C14.1525 29.3515 14.0705 29.2031 13.9963 29.0507C13.9572 28.9726 13.9221 28.8984 13.883 28.8203C13.8674 28.789 13.8557 28.7578 13.84 28.7265C13.8244 28.6953 13.8127 28.664 13.7971 28.6328C13.8244 28.6914 13.8244 28.6914 13.7971 28.6289C13.6721 28.3047 13.5627 27.9765 13.4807 27.6367C13.4377 27.4648 13.4025 27.2929 13.3752 27.1172C13.3674 27.0664 13.3596 27.0117 13.3518 26.9609C13.3557 26.9843 13.3635 27.0742 13.3518 26.957C13.34 26.8515 13.3283 26.7422 13.3205 26.6367C13.2932 26.2578 13.2932 25.875 13.3244 25.4922C13.3322 25.4023 13.34 25.3125 13.3518 25.2226C13.3557 25.1992 13.3674 25.1054 13.3518 25.2187C13.3596 25.164 13.3674 25.1132 13.3752 25.0625C13.4025 24.8867 13.4377 24.7148 13.4807 24.5429C13.5666 24.1875 13.6799 23.8398 13.8166 23.5C13.7736 23.6054 13.8166 23.5 13.8283 23.4726C13.8479 23.4336 13.8635 23.3945 13.883 23.3554C13.9182 23.2773 13.9572 23.1992 13.9963 23.125C14.0822 22.957 14.1721 22.7929 14.2697 22.6328C14.3596 22.4882 14.4533 22.3437 14.551 22.207C14.6018 22.1367 14.6525 22.0703 14.7033 22C14.633 22.0898 14.7736 21.9101 14.801 21.8789C15.0275 21.6054 15.2775 21.3476 15.5432 21.1093C15.6057 21.0547 15.6721 20.9961 15.7346 20.9414C15.7658 20.914 15.801 20.8867 15.8322 20.8593C15.8557 20.8398 15.9455 20.7734 15.8557 20.8398C16.0041 20.7265 16.1565 20.6172 16.3166 20.5156C16.6096 20.3242 16.9182 20.1562 17.2385 20.0078C17.2697 19.9922 17.4729 19.9101 17.3596 19.9531C17.4416 19.9218 17.5197 19.8906 17.6018 19.8593C17.7815 19.7929 17.965 19.7343 18.1486 19.6836C18.3166 19.6367 18.4885 19.5937 18.6604 19.5586C18.7463 19.539 18.8322 19.5234 18.9221 19.5117C18.965 19.5039 19.008 19.4961 19.0549 19.4922C19.0979 19.4843 19.09 19.4882 19.0315 19.4961C19.0666 19.4922 19.1018 19.4882 19.1369 19.4843C19.508 19.4414 19.8791 19.4297 20.2502 19.4453C20.4299 19.4531 20.6096 19.4648 20.7893 19.4882C20.8205 19.4922 20.9377 19.5078 20.8205 19.4922C20.8557 19.4961 20.8908 19.5039 20.926 19.5078C21.0315 19.5234 21.1369 19.5429 21.2385 19.5625C21.5979 19.6367 21.9533 19.7343 22.2971 19.8632C22.3791 19.8945 22.4572 19.9257 22.5393 19.957C22.4377 19.9179 22.5236 19.9492 22.5432 19.957C22.59 19.9765 22.6369 20 22.6838 20.0195C22.8479 20.0937 23.008 20.1757 23.1643 20.2656C23.469 20.4336 23.7619 20.6289 24.0393 20.8398C23.9455 20.7656 24.133 20.914 24.1604 20.9375C24.2268 20.9922 24.2893 21.0468 24.3518 21.1054C24.4924 21.2304 24.6252 21.3593 24.7541 21.4961C24.8713 21.6172 24.9846 21.7461 25.094 21.875C25.1174 21.9023 25.2658 22.0898 25.1916 21.9961C25.2541 22.0781 25.3127 22.1601 25.3713 22.2422C25.5666 22.5234 25.7424 22.8164 25.8986 23.1211C25.9377 23.1992 25.9729 23.2734 26.0119 23.3515C26.0354 23.3984 26.0549 23.4453 26.0744 23.4922C26.0822 23.5117 26.1174 23.5976 26.0744 23.4961C26.1447 23.6718 26.2111 23.8515 26.2697 24.0312C26.383 24.3828 26.469 24.7422 26.5236 25.1054C26.5275 25.1406 26.5354 25.1757 26.5393 25.2109C26.5197 25.0742 26.5432 25.2539 26.5471 25.2695C26.5549 25.3515 26.5627 25.4297 26.5705 25.5117C26.594 25.6992 26.6018 25.8906 26.6018 26.082C26.6018 26.3867 26.8713 26.6836 27.1877 26.6679C27.5041 26.6523 27.7736 26.4101 27.7736 26.082C27.7658 24.4765 27.2736 22.8711 26.3322 21.5625C25.3986 20.2656 24.1135 19.2812 22.6096 18.7265C19.5705 17.6054 15.9963 18.5781 13.9416 21.082C12.9025 22.3476 12.2815 23.8789 12.1525 25.5117C12.0275 27.1132 12.426 28.7617 13.258 30.1328C14.0588 31.4531 15.2619 32.5429 16.6721 33.1836C18.2033 33.875 19.9025 34.0742 21.551 33.7382C24.6604 33.1054 27.1838 30.4843 27.6682 27.3437C27.7307 26.9257 27.7697 26.5078 27.7736 26.082C27.7736 25.7773 27.5041 25.4804 27.1877 25.4961C26.8674 25.5078 26.6018 25.7539 26.6018 26.082Z" fill="black"/>
<path d="M19.4144 22.5774C19.4144 23.3782 19.4144 24.179 19.4144 24.9798C19.4144 26.2571 19.4144 27.5306 19.4144 28.8079C19.4144 29.1009 19.4144 29.3938 19.4144 29.6868C19.4144 29.9915 19.684 30.2884 20.0004 30.2728C20.3168 30.2571 20.5863 30.0149 20.5863 29.6868C20.5863 28.886 20.5863 28.0852 20.5863 27.2845C20.5863 26.0071 20.5863 24.7337 20.5863 23.4563C20.5863 23.1634 20.5863 22.8704 20.5863 22.5774C20.5863 22.2727 20.3168 21.9759 20.0004 21.9915C19.684 22.0071 19.4144 22.2493 19.4144 22.5774Z" fill="black"/>
<path d="M16.4455 26.718C17.2463 26.718 18.0471 26.718 18.8479 26.718C20.1252 26.718 21.3987 26.718 22.676 26.718C22.969 26.718 23.2619 26.718 23.5549 26.718C23.8596 26.718 24.1565 26.4484 24.1409 26.132C24.1252 25.8156 23.883 25.5461 23.5549 25.5461C22.7541 25.5461 21.9534 25.5461 21.1526 25.5461C19.8752 25.5461 18.6018 25.5461 17.3244 25.5461C17.0315 25.5461 16.7385 25.5461 16.4455 25.5461C16.1408 25.5461 15.844 25.8156 15.8596 26.132C15.8752 26.4484 16.1174 26.718 16.4455 26.718Z" fill="black"/>
</svg>
