<svg width="32" height="38" viewBox="0 0 32 38" fill="none" xmlns="http://www.w3.org/2000/svg">
<path d="M16.8333 19.8889C21.6667 19.4444 25.4444 15.4444 25.4444 10.4444C25.4444 5.22222 21.2222 1 16 1C10.7778 1 6.55556 5.22222 6.55556 10.4444C6.55556 15.4444 10.3333 19.4444 15.1667 19.8889C7.16667 20.3889 1 27 1 35.4444V36.5556H31V35.4444C31 27 24.8333 20.3889 16.8333 19.8889ZM8.77778 10.4444C8.77778 6.44444 12 3.22222 16 3.22222C20 3.22222 23.2222 6.44444 23.2222 10.4444C23.2222 14.4444 20 17.6667 16 17.6667C12 17.6667 8.77778 14.4444 8.77778 10.4444ZM3.27778 34.3333C3.77778 27.2778 9.05556 22.1111 16 22.1111C22.9444 22.1111 28.2222 27.2778 28.7222 34.3333H3.27778Z" fill="#363636" stroke="#363636" stroke-miterlimit="10"/>
</svg>
